custom-analysis
version=1
nRows=4
nColumns=129
inDegrees=no

This file contains tibia displacement and acting force.

Units are S.I. units (seconds, meters, Newtons, ...)
Angles are in degrees.

endheader
time	displacement	knee_angle	aACL_R_force	pACL_R_force	aPCL_R_force	pPCL_R_force	aMCL_R_force	aLCL_R_force	aPCL_L_force	pPCL_L_force	aMCL_L_force	aLCL_L_force	aACL_R_length	pACL_R_length	aPCL_R_length	pPCL_R_length	aMCL_R_length	aLCL_R_length	aPCL_L_length	pPCL_L_length	aMCL_L_length	aLCL_L_length	aACL_R_strain	pACL_R_strain	aPCL_R_strain	pPCL_R_strain	aMCL_R_strain	aLCL_R_strain	aPCL_L_strain	pPCL_L_strain	aMCL_L_strain	aLCL_L_strain	femur_lat_meniscii_l.femur_lat_l.force.X	femur_lat_meniscii_l.femur_lat_l.force.Y	femur_lat_meniscii_l.femur_lat_l.force.Z	femur_lat_meniscii_l.femur_lat_l.torque.X	femur_lat_meniscii_l.femur_lat_l.torque.Y	femur_lat_meniscii_l.femur_lat_l.torque.Z	femur_lat_meniscii_l.meniscus_lat_l.force.X	femur_lat_meniscii_l.meniscus_lat_l.force.Y	femur_lat_meniscii_l.meniscus_lat_l.force.Z	femur_lat_meniscii_l.meniscus_lat_l.torque.X	femur_lat_meniscii_l.meniscus_lat_l.torque.Y	femur_lat_meniscii_l.meniscus_lat_l.torque.Z	femur_med_meniscii_l.femur_med_l.force.X	femur_med_meniscii_l.femur_med_l.force.Y	femur_med_meniscii_l.femur_med_l.force.Z	femur_med_meniscii_l.femur_med_l.torque.X	femur_med_meniscii_l.femur_med_l.torque.Y	femur_med_meniscii_l.femur_med_l.torque.Z	femur_med_meniscii_l.meniscus_med_l.force.X	femur_med_meniscii_l.meniscus_med_l.force.Y	femur_med_meniscii_l.meniscus_med_l.force.Z	femur_med_meniscii_l.meniscus_med_l.torque.X	femur_med_meniscii_l.meniscus_med_l.torque.Y	femur_med_meniscii_l.meniscus_med_l.torque.Z	femur_lat_meniscii_r.femur_lat_r.force.X	femur_lat_meniscii_r.femur_lat_r.force.Y	femur_lat_meniscii_r.femur_lat_r.force.Z	femur_lat_meniscii_r.femur_lat_r.torque.X	femur_lat_meniscii_r.femur_lat_r.torque.Y	femur_lat_meniscii_r.femur_lat_r.torque.Z	femur_lat_meniscii_r.meniscus_lat_r.force.X	femur_lat_meniscii_r.meniscus_lat_r.force.Y	femur_lat_meniscii_r.meniscus_lat_r.force.Z	femur_lat_meniscii_r.meniscus_lat_r.torque.X	femur_lat_meniscii_r.meniscus_lat_r.torque.Y	femur_lat_meniscii_r.meniscus_lat_r.torque.Z	femur_med_meniscii_r.femur_med_r.force.X	femur_med_meniscii_r.femur_med_r.force.Y	femur_med_meniscii_r.femur_med_r.force.Z	femur_med_meniscii_r.femur_med_r.torque.X	femur_med_meniscii_r.femur_med_r.torque.Y	femur_med_meniscii_r.femur_med_r.torque.Z	femur_med_meniscii_r.meniscus_med_r.force.X	femur_med_meniscii_r.meniscus_med_r.force.Y	femur_med_meniscii_r.meniscus_med_r.force.Z	femur_med_meniscii_r.meniscus_med_r.torque.X	femur_med_meniscii_r.meniscus_med_r.torque.Y	femur_med_meniscii_r.meniscus_med_r.torque.Z	femur_med_tibia_l.tibia_upper_l.force.X	femur_med_tibia_l.tibia_upper_l.force.Y	femur_med_tibia_l.tibia_upper_l.force.Z	femur_med_tibia_l.tibia_upper_l.torque.X	femur_med_tibia_l.tibia_upper_l.torque.Y	femur_med_tibia_l.tibia_upper_l.torque.Z	femur_med_tibia_l.femur_med_l.force.X	femur_med_tibia_l.femur_med_l.force.Y	femur_med_tibia_l.femur_med_l.force.Z	femur_med_tibia_l.femur_med_l.torque.X	femur_med_tibia_l.femur_med_l.torque.Y	femur_med_tibia_l.femur_med_l.torque.Z	femur_lat_tibia_l.tibia_upper_l.force.X	femur_lat_tibia_l.tibia_upper_l.force.Y	femur_lat_tibia_l.tibia_upper_l.force.Z	femur_lat_tibia_l.tibia_upper_l.torque.X	femur_lat_tibia_l.tibia_upper_l.torque.Y	femur_lat_tibia_l.tibia_upper_l.torque.Z	femur_lat_tibia_l.femur_lat_l.force.X	femur_lat_tibia_l.femur_lat_l.force.Y	femur_lat_tibia_l.femur_lat_l.force.Z	femur_lat_tibia_l.femur_lat_l.torque.X	femur_lat_tibia_l.femur_lat_l.torque.Y	femur_lat_tibia_l.femur_lat_l.torque.Z	femur_med_tibia_r.tibia_upper_r.force.X	femur_med_tibia_r.tibia_upper_r.force.Y	femur_med_tibia_r.tibia_upper_r.force.Z	femur_med_tibia_r.tibia_upper_r.torque.X	femur_med_tibia_r.tibia_upper_r.torque.Y	femur_med_tibia_r.tibia_upper_r.torque.Z	femur_med_tibia_r.femur_med_r.force.X	femur_med_tibia_r.femur_med_r.force.Y	femur_med_tibia_r.femur_med_r.force.Z	femur_med_tibia_r.femur_med_r.torque.X	femur_med_tibia_r.femur_med_r.torque.Y	femur_med_tibia_r.femur_med_r.torque.Z	femur_lat_tibia_r.tibia_upper_r.force.X	femur_lat_tibia_r.tibia_upper_r.force.Y	femur_lat_tibia_r.tibia_upper_r.force.Z	femur_lat_tibia_r.tibia_upper_r.torque.X	femur_lat_tibia_r.tibia_upper_r.torque.Y	femur_lat_tibia_r.tibia_upper_r.torque.Z	femur_lat_tibia_r.femur_lat_r.force.X	femur_lat_tibia_r.femur_lat_r.force.Y	femur_lat_tibia_r.femur_lat_r.force.Z	femur_lat_tibia_r.femur_lat_r.torque.X	femur_lat_tibia_r.femur_lat_r.torque.Y	femur_lat_tibia_r.femur_lat_r.torque.Z
      0.00000000	      0.00000000	      1.66158400	      0.56539788	      0.95352111	      0.02063132	      0.05153587	      0.02182983	      0.61577151	      0.00000000	      0.00000000	      0.00000001	      0.00000000	      0.03300564	      0.02655917	      0.02681687	      0.03238927	      0.06470260	      0.05746312	      0.01525851	      0.01651186	      0.06550154	      0.04489616	      0.00672546	      0.00845660	      0.00162053	      0.00276742	      0.00129764	      0.00442279	      0.00000079	     -0.32847694	      0.00000060	     -0.00000086	      2.76307435	     50.99597937	     -9.56042239	      5.21997485	     -0.02578839	      1.48581788	     -2.76307435	    -50.99597937	      9.56042239	     -1.74637766	      0.02558040	     -0.48301696	     -3.31599387	     20.97615968	     -3.40468921	      0.94473225	     -0.02138609	     -1.00501789	      3.31599387	    -20.97615968	      3.40468921	      0.28075727	      0.00368718	     -0.29758878	      1.37659230	      2.94137022	      0.02646076	     -0.08741366	      0.03637743	      0.57528206	     -1.37659230	     -2.94137022	     -0.02646076	      0.09263995	     -0.04357327	     -0.04728596	      0.98053776	     36.96801836	      3.06418352	     -0.48391681	     -0.06913573	      0.97747711	     -0.98053776	    -36.96801836	     -3.06418352	     -0.50228318	      0.06618369	     -0.62627841	      0.00000000	      0.00000000	      0.00000000	      0.00000000	      0.00000000	      0.00000000	      0.00000000	      0.00000000	      0.00000000	      0.00000000	      0.00000000	      0.00000000	      0.00000000	      0.00000000	      0.00000000	      0.00000000	      0.00000000	      0.00000000	      0.00000000	      0.00000000	      0.00000000	      0.00000000	      0.00000000	      0.00000000	      0.00000000	      0.00000000	      0.00000000	      0.00000000	      0.00000000	      0.00000000	      0.00000000	      0.00000000	      0.00000000	      0.00000000	      0.00000000	      0.00000000	      0.00000000	      0.00000000	      0.00000000	      0.00000000	      0.00000000	      0.00000000	      0.00000000	      0.00000000	      0.00000000	      0.00000000	      0.00000000	      0.00000000
      0.00122146	     -0.00005343	      1.65756200	    -28.35387909	    -28.18652327	    -13.34125399	    -41.67228507	    -52.96273796	    -50.08246294	      0.00000000	      0.00000000	     10.29169229	     11.67000447	      0.03295509	      0.02651015	      0.02679013	      0.03235765	      0.06465201	      0.05742399	      0.01525513	      0.01651206	      0.06551094	      0.04490458	      0.00518387	      0.00659527	      0.00062203	      0.00178859	      0.00051469	      0.00373881	     -0.00022070	     -0.32846914	      0.00014417	      0.00018676	      5.77534334	     44.70036861	     -4.99492602	      3.14267859	     -0.12227733	      2.72567909	     -5.77534334	    -44.70036861	      4.99492602	     -1.40200894	      0.13991899	     -0.55516581	     -2.37154876	     18.73837724	     -1.42840165	      0.16010052	     -0.03604046	     -0.64171334	      2.37154876	    -18.73837724	      1.42840165	      0.31324603	      0.02457944	     -0.29452570	      0.18004588	     12.21268074	     -0.20454775	     -0.23555285	      0.00698204	      0.10213218	     -0.18004588	    -12.21268074	      0.20454775	      0.37831667	     -0.00807634	     -0.04180573	     -8.29139381	     71.35624961	      3.32362204	      0.13424883	      0.12833439	     -2.50222970	      8.29139381	    -71.35624961	     -3.32362204	     -1.03996298	     -0.08243069	     -0.74276871	      0.00000000	      0.00000000	      0.00000000	      0.00000000	      0.00000000	      0.00000000	      0.00000000	      0.00000000	      0.00000000	      0.00000000	      0.00000000	      0.00000000	      0.00000000	      0.00000000	      0.00000000	      0.00000000	      0.00000000	      0.00000000	      0.00000000	      0.00000000	      0.00000000	      0.00000000	      0.00000000	      0.00000000	      0.00000000	      0.00000000	      0.00000000	      0.00000000	      0.00000000	      0.00000000	      0.00000000	      0.00000000	      0.00000000	      0.00000000	      0.00000000	      0.00000000	      0.00000000	      0.00000000	      0.00000000	      0.00000000	      0.00000000	      0.00000000	      0.00000000	      0.00000000	      0.00000000	      0.00000000	      0.00000000	      0.00000000
      0.00187224	     -0.00011082	      1.65309658	    -35.96327060	    -35.96179364	      0.00000000	    -50.80480607	      0.00000000	    -62.01282426	      0.00000000	      0.00000000	     13.63100741	     15.47790389	      0.03290088	      0.02645749	      0.02676383	      0.03232593	      0.06459842	      0.05738385	      0.01525137	      0.01651251	      0.06552175	      0.04491432	      0.00353030	      0.00459580	     -0.00036048	      0.00080663	     -0.00031468	      0.00303727	     -0.00046746	     -0.32845065	      0.00030916	      0.00040362	      6.06628523	     38.78425833	     -3.53316710	      2.38580266	     -0.13583562	      2.81263054	     -6.06628523	    -38.78425833	      3.53316710	     -1.18406846	      0.15644063	     -0.52312306	     -2.03442540	     16.50740380	     -0.70426338	     -0.09327943	     -0.04066745	     -0.53780232	      2.03442540	    -16.50740380	      0.70426338	      0.29677283	      0.03145239	     -0.26602886	     -2.28275574	     28.66725250	     -0.51574208	     -0.54136069	     -0.05570943	     -0.86557643	      2.28275574	    -28.66725250	      0.51574208	      0.89015636	      0.06727952	     -0.03513084	    -17.60922035	    112.24119353	      4.17388747	      0.62277797	      0.30756876	     -5.88711857	     17.60922035	   -112.24119353	     -4.17388747	     -1.64137870	     -0.21209070	     -0.97778521	      0.00000000	      0.00000000	      0.00000000	      0.00000000	      0.00000000	      0.00000000	      0.00000000	      0.00000000	      0.00000000	      0.00000000	      0.00000000	      0.00000000	      0.00000000	      0.00000000	      0.00000000	      0.00000000	      0.00000000	      0.00000000	      0.00000000	      0.00000000	      0.00000000	      0.00000000	      0.00000000	      0.00000000	      0.00000000	      0.00000000	      0.00000000	      0.00000000	      0.00000000	      0.00000000	      0.00000000	      0.00000000	      0.00000000	      0.00000000	      0.00000000	      0.00000000	      0.00000000	      0.00000000	      0.00000000	      0.00000000	      0.00000000	      0.00000000	      0.00000000	      0.00000000	      0.00000000	      0.00000000	      0.00000000	      0.00000000
      0.00252303	     -0.00017928	      1.64814516	    -40.55489742	    -40.62942904	      0.00000000	      0.00000000	      0.00000000	    -72.27516386	      0.00000000	      0.00000000	     15.69747984	     17.70832776	      0.03283622	      0.02639467	      0.02673246	      0.03228806	      0.06453438	      0.05733586	      0.01524658	      0.01651310	      0.06553496	      0.04492617	      0.00155797	      0.00221062	     -0.00153227	     -0.00036594	     -0.00130571	      0.00219835	     -0.00078129	     -0.32842651	      0.00051080	      0.00066755	      5.99362999	     32.42577507	     -2.62219026	      1.85110947	     -0.13715425	      2.73915415	     -5.99362999	    -32.42577507	      2.62219026	     -0.97432194	      0.15857287	     -0.47019004	     -1.74725279	     14.13420036	     -0.23340631	     -0.23624540	     -0.04146122	     -0.45947896	      1.74725279	    -14.13420036	      0.23340631	      0.26803118	      0.03398776	     -0.23102973	     -6.50460151	     57.24426279	     -0.88179075	     -1.14397737	     -0.16436897	     -2.50979351	      6.50460151	    -57.24426279	      0.88179075	      1.78341407	      0.19775814	     -0.03949932	    -29.61175574	    176.37892828	      5.44544600	      1.40763093	      0.53033075	    -10.05246171	     29.61175574	   -176.37892828	     -5.44544600	     -2.57927649	     -0.37080147	     -1.48600287	      0.00000000	      0.00000000	      0.00000000	      0.00000000	      0.00000000	      0.00000000	      0.00000000	      0.00000000	      0.00000000	      0.00000000	      0.00000000	      0.00000000	      0.00000000	      0.00000000	      0.00000000	      0.00000000	      0.00000000	      0.00000000	      0.00000000	      0.00000000	      0.00000000	      0.00000000	      0.00000000	      0.00000000	      0.00000000	      0.00000000	      0.00000000	      0.00000000	      0.00000000	      0.00000000	      0.00000000	      0.00000000	      0.00000000	      0.00000000	      0.00000000	      0.00000000	      0.00000000	      0.00000000	      0.00000000	      0.00000000	      0.00000000	      0.00000000	      0.00000000	      0.00000000	      0.00000000	      0.00000000	      0.00000000	      0.00000000
